<!DOCTYPE svg PUBLIC "-//W3C//DTD SVG 20010904//EN" "http://www.w3.org/TR/2001/REC-SVG-20010904/DTD/svg10.dtd">
<svg version="1.0" xmlns="http://www.w3.org/2000/svg" width="1600px" height="974px" viewBox="0 0 16000 9740" preserveAspectRatio="xMidYMid meet">
<g id="layer1" fill="#0bc6bd" stroke="none">
 <path d="M5254 9730 c-6 -6 -42 -14 -81 -19 -40 -5 -86 -16 -103 -24 -52 -26 -112 -31 -173 -13 -47 14 -63 14 -101 4 -36 -9 -53 -9 -79 0 -90 32 -176 -5 -163 -70 3 -18 14 -40 22 -50 36 -39 33 -122 -5 -196 -5 -9 -24 -48 -43 -85 -18 -38 -39 -73 -45 -79 -7 -6 -13 -17 -13 -25 0 -17 -45 -96 -78 -138 -59 -74 -139 -148 -186 -171 -47 -24 -57 -25 -136 -19 -108 8 -138 8 -175 0 -24 -5 -35 -2 -49 14 -23 25 -60 27 -140 6 -61 -16 -62 -16 -116 25 -19 14 -57 31 -85 38 -29 8 -63 25 -80 43 -31 29 -32 29 -146 29 -109 0 -115 1 -124 23 -8 18 -22 24 -70 30 -84 11 -149 1 -214 -34 -31 -16 -68 -29 -83 -29 -36 0 -117 -33 -181 -73 -78 -49 -146 -75 -210 -82 -77 -7 -128 -35 -197 -106 -32 -32 -62 -59 -67 -59 -6 0 -16 -6 -22 -14 -20 -24 -130 -58 -215 -66 -60 -6 -97 -16 -144 -39 -42 -22 -87 -35 -135 -40 -96 -12 -146 -41 -263 -157 -105 -106 -145 -134 -188 -134 -20 0 -44 -13 -77 -42 -68 -61 -105 -88 -121 -88 -8 0 -27 -14 -44 -31 -27 -28 -29 -35 -27 -101 3 -86 -10 -139 -47 -193 -25 -36 -29 -50 -33 -142 -2 -59 -9 -108 -16 -117 -7 -8 -15 -41 -18 -73 -6 -70 -34 -116 -83 -138 -65 -29 -120 -67 -211 -147 -60 -53 -67 -64 -77 -113 -9 -43 -19 -62 -47 -88 -40 -36 -75 -105 -75 -149 0 -16 11 -44 25 -62 37 -49 32 -105 -18 -179 -10 -15 -17 -37 -15 -50 1 -14 -13 -41 -40 -75 -33 -43 -42 -62 -42 -93 0 -35 3 -41 30 -50 28 -10 30 -14 30 -61 0 -27 4 -57 10 -67 6 -13 4 -45 -6 -100 -15 -81 -16 -83 -85 -153 -38 -39 -69 -79 -69 -89 0 -9 -7 -22 -15 -29 -60 -50 -91 -186 -89 -397 2 -132 12 -185 44 -233 9 -14 29 -44 45 -67 18 -28 35 -43 49 -43 12 0 50 26 87 59 51 47 70 72 90 120 18 46 33 68 61 86 21 14 42 25 48 25 21 0 84 53 175 146 l90 92 90 7 c50 4 112 14 138 22 43 14 49 14 66 -1 9 -9 28 -16 40 -16 31 0 119 -45 156 -80 17 -15 69 -50 116 -77 175 -100 219 -150 336 -378 14 -28 34 -83 45 -130 17 -69 51 -128 103 -180 53 -53 115 -128 115 -140 0 -15 61 -93 86 -110 26 -17 28 -17 63 1 39 19 63 19 101 -1 49 -26 236 -107 305 -131 85 -31 225 -34 320 -9 101 27 136 35 250 53 61 10 126 26 145 35 19 9 58 23 85 32 54 17 89 31 120 48 75 41 137 66 179 72 50 7 72 18 136 66 19 14 58 34 85 44 28 10 59 25 70 34 77 62 114 55 255 -54 40 -32 97 -73 126 -91 63 -40 148 -122 156 -149 3 -11 19 -56 36 -100 30 -79 34 -92 67 -190 9 -27 21 -90 26 -138 5 -49 13 -96 19 -106 22 -42 34 -204 32 -431 -2 -129 -5 -261 -8 -292 -6 -56 -7 -58 -40 -64 -20 -4 -39 -15 -46 -28 -18 -33 -11 -464 8 -494 23 -35 58 -28 112 22 26 24 63 48 82 54 98 28 174 62 207 91 75 66 172 100 320 110 68 5 109 13 120 23 10 8 40 27 66 42 43 25 64 29 179 37 141 9 137 10 237 -53 31 -20 38 -20 90 -10 32 7 73 12 92 12 19 0 50 9 70 19 78 42 218 66 244 42 6 -4 30 -16 55 -25 39 -15 56 -15 115 -6 43 7 81 20 100 34 45 34 143 52 209 37 42 -9 73 -9 161 4 61 9 175 19 255 22 126 5 149 9 175 27 27 19 48 22 225 27 170 5 207 9 290 33 l95 27 90 -22 c75 -18 104 -20 175 -13 113 10 245 5 295 -11 22 -7 56 -16 75 -20 19 -4 54 -13 77 -21 23 -7 86 -16 140 -19 54 -4 141 -16 193 -27 85 -19 100 -26 140 -65 46 -43 46 -43 120 -43 41 1 95 5 120 10 54 11 159 -4 210 -30 19 -10 62 -31 95 -46 33 -16 64 -34 68 -41 4 -7 12 -13 17 -13 21 0 98 -58 147 -111 29 -30 76 -68 105 -83 29 -16 76 -41 103 -57 28 -16 57 -32 65 -35 8 -3 31 -14 50 -23 30 -13 75 -16 300 -16 192 0 273 -4 296 -13 17 -7 71 -24 120 -36 49 -13 130 -36 179 -51 50 -15 108 -30 130 -34 55 -11 133 -38 176 -61 20 -11 48 -20 62 -20 13 0 30 -7 37 -15 21 -25 117 -65 156 -65 29 0 43 -8 78 -45 24 -25 51 -45 61 -45 9 0 47 -17 83 -39 37 -21 78 -42 92 -46 14 -4 49 -23 78 -41 29 -19 57 -34 63 -34 24 0 110 -53 174 -109 39 -33 75 -61 80 -61 6 0 24 -7 40 -16 17 -8 67 -28 111 -44 45 -15 92 -35 105 -43 13 -8 36 -17 51 -21 20 -4 71 -61 192 -211 92 -112 166 -208 166 -213 0 -4 15 -22 33 -40 39 -38 75 -41 124 -11 32 20 45 21 156 17 129 -5 129 -5 247 -76 19 -12 51 -31 70 -42 19 -11 53 -31 75 -45 26 -16 56 -24 85 -25 29 0 59 -9 85 -24 22 -14 63 -36 90 -50 67 -35 144 -110 175 -169 23 -46 63 -84 119 -115 13 -8 40 -23 60 -35 20 -11 52 -29 71 -39 19 -11 46 -26 60 -33 14 -8 49 -15 78 -15 66 0 111 -20 182 -80 96 -81 100 -83 213 -84 89 -1 104 -4 119 -21 13 -16 29 -20 81 -20 59 -1 68 -4 116 -40 28 -21 51 -45 51 -52 0 -21 39 -35 92 -32 38 2 52 -1 59 -14 6 -9 15 -17 20 -17 6 0 25 -11 43 -25 18 -14 38 -25 43 -25 6 0 16 -13 21 -30 13 -35 31 -44 134 -65 92 -18 180 -19 196 -3 19 19 15 106 -6 136 -24 36 -52 130 -52 176 0 43 -27 100 -81 174 -36 48 -43 52 -80 52 -30 0 -55 9 -93 35 -48 32 -60 35 -123 35 -51 0 -74 4 -83 15 -28 34 -145 106 -188 117 -26 7 -54 17 -62 24 -8 6 -32 17 -52 23 -21 7 -40 16 -43 21 -3 5 -22 14 -43 21 -68 22 -113 68 -207 212 -14 21 -25 44 -25 51 0 8 -7 19 -15 26 -8 6 -21 35 -29 63 -22 75 -40 97 -82 97 -19 0 -34 5 -34 11 0 18 -63 69 -115 93 -95 45 -180 87 -200 99 -45 26 -119 95 -169 157 -97 120 -111 135 -186 211 l-75 76 -87 11 c-48 6 -111 21 -140 32 -64 26 -60 24 -138 80 -34 25 -70 49 -79 55 -9 5 -39 27 -68 47 -55 40 -95 57 -207 90 -76 22 -151 68 -206 126 -19 20 -77 73 -129 117 -51 44 -115 103 -142 130 -62 64 -218 275 -219 295 -1 28 -40 175 -56 210 -38 81 -118 130 -231 140 -47 4 -79 13 -92 24 -24 21 -108 31 -141 16 -14 -6 -41 -19 -60 -30 -21 -11 -39 -15 -44 -9 -6 5 -36 9 -68 9 -58 0 -58 0 -163 86 -60 49 -107 95 -109 107 -3 12 -8 40 -11 62 -7 43 -24 70 -103 163 -29 35 -59 78 -67 95 -27 61 -74 386 -67 460 1 16 13 55 27 87 17 41 25 78 25 118 0 54 4 66 50 135 27 42 54 79 60 82 5 3 10 14 11 23 1 43 137 182 178 182 20 0 71 50 71 69 0 9 9 27 20 41 11 14 20 31 20 38 0 8 9 25 20 39 11 14 20 32 20 39 0 14 115 161 157 201 37 35 163 137 186 150 35 20 91 89 106 129 7 21 19 46 26 54 7 8 16 26 20 40 11 37 61 102 108 142 23 19 49 48 57 64 8 15 29 50 47 77 31 46 32 50 26 126 -6 79 5 121 30 121 20 0 57 56 57 85 0 61 -88 106 -136 70 -10 -8 -36 -15 -57 -15 -39 0 -107 -43 -107 -67 0 -20 -31 -31 -72 -25 -45 6 -103 -16 -160 -61 -34 -26 -43 -28 -90 -22 -35 4 -78 1 -128 -10 -149 -33 -143 -33 -167 -12 -28 25 -126 48 -228 53 -129 7 -125 5 -125 71 0 55 -1 58 -51 104 -32 30 -63 49 -85 52 -19 3 -47 15 -62 25 -32 23 -116 36 -169 27 -27 -4 -56 -22 -98 -61 -57 -52 -139 -114 -152 -114 -3 0 -22 -13 -42 -29 -20 -15 -76 -43 -126 -61 l-90 -33 -285 6 c-229 5 -293 9 -324 22 -36 15 -70 39 -193 135 -66 51 -99 117 -106 215 -3 39 -11 113 -17 165 -10 86 -14 287 -7 399 2 43 0 46 -53 88 -30 24 -68 57 -85 72 -36 33 -85 123 -85 158 0 43 -22 101 -47 125 -32 30 -113 31 -145 1 -13 -12 -39 -24 -58 -28 -43 -8 -158 10 -196 30 -16 8 -32 15 -36 15 -25 0 -118 89 -160 152 -26 40 -54 83 -63 95 -16 23 -55 33 -202 53 -46 6 -95 17 -110 25 -16 8 -33 15 -40 15 -7 0 -28 9 -48 20 -20 11 -40 20 -45 20 -9 0 -80 29 -120 49 -8 4 -27 30 -42 58 -18 33 -38 54 -55 60 -40 15 -123 35 -162 41 -37 5 -125 60 -153 95 -13 18 -31 23 -98 28 -66 4 -83 9 -95 26 -34 48 -146 67 -252 43 -71 -17 -131 2 -178 55 -40 45 -41 46 -149 65 -132 24 -329 26 -442 5 -47 -8 -155 -15 -264 -16 -157 -2 -190 0 -215 14 -16 9 -35 17 -41 17 -5 0 -29 9 -52 20 -22 11 -45 20 -51 20 -5 0 -24 17 -43 38 -27 31 -47 42 -110 60 -42 12 -84 22 -93 22 -21 0 -63 32 -123 94 -71 73 -73 75 -125 107 -41 25 -54 40 -82 102 -44 98 -56 156 -58 284 -1 99 1 112 25 155 37 66 59 93 117 139 52 41 72 79 53 102 -6 6 -13 29 -17 50 -7 37 -8 37 -54 37 -26 0 -52 -5 -57 -10z m36 -90 c0 -5 -5 -10 -10 -10 -14 0 -88 -78 -119 -125 -51 -80 -71 -144 -71 -230 1 -44 7 -109 15 -145 8 -36 20 -87 25 -114 6 -27 17 -57 24 -65 8 -9 18 -28 21 -43 7 -29 107 -128 129 -128 7 0 38 -29 70 -65 31 -36 61 -65 66 -65 4 0 21 -12 38 -28 27 -25 65 -39 162 -58 19 -4 54 -23 76 -43 23 -20 57 -43 75 -52 19 -9 61 -29 94 -44 58 -28 67 -29 242 -33 131 -3 226 1 338 13 98 11 186 15 238 11 45 -3 119 -9 165 -12 l82 -7 0 -136 c0 -81 6 -156 14 -186 10 -41 11 -69 0 -160 -7 -60 -13 -129 -14 -152 0 -24 -4 -43 -9 -43 -11 0 -88 -54 -152 -107 -38 -30 -77 -78 -187 -223 -48 -65 -49 -65 -108 -72 -67 -7 -116 -18 -189 -42 -27 -9 -81 -25 -120 -37 -156 -47 -201 -62 -213 -74 -10 -9 -11 -26 -2 -79 6 -38 8 -76 5 -85 -3 -10 -24 -23 -46 -30 -22 -7 -43 -19 -46 -27 -3 -8 -12 -14 -20 -14 -8 0 -29 -10 -46 -22 -26 -19 -45 -23 -109 -23 -64 0 -82 4 -108 23 -47 35 -97 27 -130 -19 -102 -147 -186 -235 -281 -294 -106 -66 -179 -128 -179 -153 0 -12 -7 -25 -16 -29 -8 -3 -74 -1 -147 6 -114 10 -134 14 -157 34 -49 45 -120 66 -247 73 -73 4 -126 12 -138 20 -27 19 -99 18 -143 -2 -156 -69 -273 -126 -313 -152 -101 -67 -93 -63 -106 -44 -47 69 -66 82 -115 82 -53 0 -52 -1 -62 90 -2 25 -9 72 -15 105 -5 33 -12 95 -16 138 l-7 78 37 32 c105 91 115 103 115 144 0 44 -50 123 -78 123 -10 0 -33 18 -52 40 -19 22 -38 40 -42 40 -10 0 -98 90 -98 101 0 5 -9 14 -20 21 -11 7 -20 18 -20 25 0 7 -6 16 -13 20 -6 4 -32 35 -57 68 -25 33 -82 97 -127 141 -62 62 -84 92 -93 124 -6 23 -9 48 -6 56 3 8 29 25 58 38 66 29 88 54 95 103 4 34 0 43 -36 81 -25 26 -41 53 -41 68 0 23 -31 64 -49 64 -5 0 -48 22 -96 49 -79 44 -90 54 -115 102 l-27 54 -57 3 c-55 3 -56 4 -56 33 0 37 -42 95 -75 103 -23 6 -25 11 -25 70 0 34 3 117 7 184 l6 121 52 26 c29 14 70 25 91 25 23 0 49 8 64 20 14 11 30 20 36 20 6 0 26 7 44 17 46 22 119 19 137 -7 30 -42 68 -52 173 -45 94 7 97 6 127 -19 17 -14 36 -26 43 -26 23 0 116 -45 152 -73 31 -25 42 -28 75 -23 107 20 151 18 181 -4 30 -22 31 -22 76 -5 44 17 49 17 116 -1 70 -18 70 -18 143 5 39 13 91 35 115 48 43 25 186 171 204 208 5 11 29 56 52 100 122 225 146 285 146 363 0 48 -5 73 -21 98 -23 37 -13 46 16 14 22 -24 43 -25 111 -4 51 17 53 16 88 -5 31 -19 44 -22 89 -16 28 4 71 16 94 26 23 10 49 19 57 19 19 0 127 28 134 35 9 9 32 5 32 -5z m-2710 -1019 l0 -170 38 -27 c53 -40 62 -53 62 -95 0 -21 4 -40 9 -43 5 -4 36 -9 69 -12 58 -6 59 -7 83 -52 25 -47 51 -66 179 -133 47 -24 59 -36 64 -60 3 -17 20 -44 37 -60 42 -39 37 -70 -13 -86 -56 -18 -86 -41 -104 -79 -15 -31 -15 -38 0 -87 10 -28 26 -64 37 -79 10 -15 19 -31 19 -35 0 -5 23 -26 51 -48 27 -22 92 -94 144 -160 105 -134 276 -309 318 -324 23 -9 27 -16 27 -51 0 -22 -4 -40 -9 -40 -5 0 -32 -18 -60 -40 -40 -32 -54 -50 -63 -85 -10 -36 -17 -45 -40 -50 -15 -4 -48 -27 -74 -51 -25 -25 -50 -44 -56 -42 -5 2 -22 32 -37 66 -34 76 -60 105 -108 120 -31 10 -40 8 -65 -9 -15 -11 -28 -26 -28 -32 0 -7 -7 -23 -16 -35 -12 -18 -19 -20 -35 -12 -10 6 -19 17 -19 24 0 18 -30 42 -62 50 -22 5 -32 0 -61 -34 -19 -22 -42 -40 -51 -40 -10 0 -31 -14 -48 -30 l-30 -30 4 -129 c3 -115 5 -132 24 -153 12 -13 25 -32 29 -43 15 -39 23 -201 13 -280 -5 -44 -11 -99 -14 -122 -3 -27 -14 -51 -33 -70 -38 -39 -61 -78 -75 -127 -10 -36 -17 -43 -56 -56 -80 -27 -126 -48 -137 -62 -5 -7 -18 -35 -28 -63 -11 -29 -37 -68 -62 -93 -35 -36 -43 -51 -43 -81 0 -52 23 -79 96 -112 35 -15 64 -32 64 -36 5 -85 6 -213 3 -229 -3 -15 -20 -26 -60 -40 -70 -24 -100 -64 -109 -146 -6 -54 -11 -62 -47 -91 -22 -18 -61 -53 -87 -78 -68 -66 -134 -118 -173 -138 l-35 -18 -13 28 c-29 57 -111 166 -135 180 -14 7 -32 26 -40 41 -8 15 -19 28 -23 28 -5 0 -12 19 -16 43 -4 23 -14 54 -21 69 -8 15 -14 33 -14 41 0 25 -59 142 -137 269 -51 83 -137 157 -273 232 -47 26 -89 54 -93 62 -23 41 -215 124 -287 124 -19 0 -89 -9 -155 -21 -66 -11 -135 -23 -153 -25 -18 -3 -35 -11 -38 -18 -3 -7 -45 -54 -93 -104 -84 -86 -145 -132 -176 -132 -23 0 -95 -92 -107 -138 -13 -53 -69 -102 -93 -82 -8 7 -15 17 -15 22 0 6 -8 22 -19 36 -26 38 -34 181 -17 302 15 106 28 140 68 188 15 18 28 39 28 47 0 7 33 47 74 87 l73 73 8 70 c17 139 2 330 -26 348 -16 10 -15 14 22 54 33 36 39 49 39 87 0 26 6 48 14 56 22 17 40 110 32 163 -4 25 -16 53 -26 62 -30 27 -24 51 23 103 54 59 72 89 82 131 5 24 26 51 67 90 33 30 68 60 78 66 94 54 138 81 154 94 46 40 81 161 96 333 8 93 20 132 45 153 18 15 47 153 43 205 -3 44 -2 45 46 71 26 14 51 31 55 35 18 27 93 74 145 91 50 18 75 36 177 137 69 68 127 116 138 116 11 0 23 5 26 10 3 6 18 10 32 10 44 0 156 32 181 51 13 10 49 20 80 24 182 20 288 64 392 165 73 70 77 72 150 86 41 8 93 20 115 29 22 8 43 14 48 15 4 0 7 -76 7 -169z m4651 -338 l139 7 34 -34 c31 -32 40 -35 116 -42 65 -5 86 -11 103 -28 60 -60 184 -116 258 -116 39 0 69 -16 69 -38 1 -28 51 -76 105 -101 28 -13 68 -32 90 -42 22 -11 44 -19 49 -19 5 0 32 -11 60 -24 28 -13 110 -34 181 -47 138 -25 141 -26 177 -94 25 -48 139 -160 182 -180 17 -8 38 -19 46 -24 8 -5 50 -19 93 -31 104 -29 185 -25 245 13 23 15 46 25 51 23 5 -3 11 -25 14 -49 15 -107 103 -238 199 -297 l30 -18 4 -233 c7 -454 35 -549 199 -659 12 -8 50 -35 85 -60 106 -76 86 -72 410 -82 323 -10 394 -5 478 38 26 13 52 24 58 24 6 0 19 9 29 20 10 11 24 20 30 20 7 0 18 7 25 16 8 8 28 21 47 29 18 8 33 19 33 24 0 6 5 11 11 11 6 0 38 25 72 55 53 48 66 55 101 55 23 0 50 -7 60 -15 11 -8 26 -15 33 -15 21 0 107 -43 120 -60 24 -30 14 -45 -46 -69 -32 -13 -73 -36 -91 -53 -30 -27 -32 -33 -27 -77 5 -42 3 -52 -17 -70 -12 -11 -30 -21 -39 -21 -27 0 -57 -37 -57 -70 l0 -30 -65 0 c-77 0 -164 17 -186 36 -9 8 -39 17 -67 21 -49 5 -54 4 -92 -31 -22 -20 -48 -36 -57 -36 -37 0 -149 -34 -175 -53 -21 -15 -28 -29 -28 -54 0 -22 -5 -33 -15 -33 -14 0 -52 -23 -116 -73 -20 -15 -47 -49 -59 -75 -13 -26 -26 -54 -30 -62 -6 -12 -24 -14 -96 -10 -49 3 -153 5 -231 5 -126 0 -145 -2 -168 -20 -38 -29 -74 -145 -82 -265 -6 -98 -14 -120 -41 -120 -9 0 -34 -20 -57 -44 -55 -59 -75 -68 -135 -60 -38 5 -56 13 -71 33 -11 14 -35 31 -52 37 -28 9 -33 17 -38 53 -7 51 -16 61 -66 68 -71 9 -166 -12 -227 -51 -67 -43 -117 -47 -184 -15 -53 26 -60 41 -38 85 9 19 16 55 16 80 0 42 -2 46 -47 74 -26 17 -52 30 -57 30 -6 1 -23 17 -39 37 -32 42 -29 68 12 98 67 51 101 109 101 174 0 13 15 42 33 64 48 61 57 84 57 141 0 54 -42 153 -80 188 -14 13 -20 32 -20 63 0 64 -25 78 -131 73 -70 -3 -83 -6 -98 -26 -16 -22 -51 -23 -51 -2 0 4 -13 22 -29 39 -27 29 -33 31 -101 31 -80 0 -110 -11 -110 -40 0 -15 -7 -20 -27 -20 -75 1 -99 29 -110 132 -7 72 -19 101 -62 147 l-30 32 -129 -7 c-91 -5 -149 -3 -194 6 -56 11 -67 11 -95 -4 -18 -9 -37 -25 -43 -36 -14 -26 -36 -25 -85 5 -22 14 -48 25 -58 25 -21 0 -37 38 -37 91 0 58 -24 107 -57 119 -15 6 -40 17 -55 25 -14 8 -36 15 -49 15 -12 0 -32 9 -43 19 -21 19 -82 57 -142 87 -27 14 -35 15 -60 2 -25 -12 -29 -19 -29 -57 0 -30 -5 -46 -15 -50 -8 -3 -27 -14 -42 -24 -27 -19 -27 -18 -62 8 -60 46 -154 43 -244 -7 -18 -10 -49 -18 -69 -18 -31 0 -43 8 -82 50 -25 28 -52 50 -59 50 -26 0 -89 40 -114 72 -20 26 -26 49 -30 104 l-5 72 71 21 c39 12 91 29 116 38 25 8 61 19 80 23 19 4 55 15 80 25 25 9 80 19 122 22 l77 6 83 110 c46 60 93 123 105 140 13 17 44 46 70 64 27 18 75 52 108 76 l60 43 19 173 c18 164 18 178 2 245 -9 39 -16 104 -16 144 l0 74 36 -23 c34 -21 43 -22 175 -16z m-1182 -1413 c19 -22 42 -40 52 -40 9 0 22 -7 29 -15 7 -8 19 -15 27 -15 8 0 33 -21 56 -46 65 -71 134 -79 223 -28 30 18 56 24 101 24 51 0 63 -4 84 -26 20 -22 30 -25 67 -21 24 3 53 13 65 24 12 11 34 24 50 31 15 6 33 24 39 39 7 16 13 29 14 31 2 4 76 -39 99 -58 11 -10 33 -20 49 -24 15 -4 48 -16 71 -27 l43 -20 7 -70 c8 -75 39 -129 75 -129 9 0 28 -8 41 -17 87 -64 128 -68 176 -17 l34 37 82 -8 c98 -9 110 -9 207 0 72 6 76 5 92 -19 10 -13 24 -66 33 -118 9 -57 21 -97 30 -104 8 -6 15 -16 15 -22 0 -24 64 -45 140 -46 l75 -1 3 33 c3 31 5 32 48 32 40 0 48 -5 93 -51 55 -57 68 -58 128 -13 22 17 45 24 77 24 l45 0 6 -45 c4 -24 13 -49 20 -55 8 -6 28 -39 45 -72 41 -79 38 -116 -19 -188 -30 -38 -41 -61 -41 -87 0 -35 -36 -113 -52 -113 -16 0 -73 -64 -86 -96 -11 -26 -11 -37 1 -66 19 -45 62 -89 120 -123 51 -29 54 -37 32 -75 -15 -27 -20 -97 -7 -116 4 -6 29 -28 56 -49 47 -36 52 -37 135 -38 81 -2 88 0 131 29 54 38 112 57 159 52 29 -2 36 -8 42 -32 10 -36 57 -86 81 -86 22 0 23 -9 2 -38 -27 -38 -67 -53 -128 -46 -47 6 -58 3 -88 -18 -18 -13 -46 -30 -61 -38 -47 -23 -87 -87 -87 -138 0 -41 4 -48 78 -120 105 -105 122 -129 122 -174 0 -34 -45 -149 -62 -156 -16 -8 -60 -108 -65 -151 -5 -43 -2 -51 27 -84 20 -23 41 -37 55 -37 34 0 41 -19 14 -38 -13 -9 -43 -36 -67 -61 -42 -43 -43 -45 -35 -90 12 -68 10 -132 -6 -168 -12 -30 -17 -33 -56 -33 -29 0 -47 6 -60 20 -12 14 -31 20 -58 20 -32 0 -46 -6 -73 -35 -33 -36 -57 -44 -70 -24 -5 8 -37 10 -108 5 -121 -8 -132 -4 -226 86 -74 72 -120 124 -149 171 -26 43 -69 81 -107 96 -23 9 -100 10 -300 5 -148 -3 -333 -7 -411 -8 -152 -3 -184 -11 -243 -58 -25 -21 -45 -28 -76 -28 -37 0 -51 8 -123 69 -118 99 -163 105 -235 31 -48 -49 -116 -80 -179 -80 -13 0 -40 -11 -60 -24 -31 -22 -37 -23 -48 -9 -12 14 -45 14 -80 -1 -11 -5 -19 1 -26 17 -10 22 -20 25 -96 32 -59 4 -92 3 -107 -5 -26 -14 -337 -22 -346 -9 -10 17 -78 9 -133 -17 -70 -33 -101 -61 -101 -91 l0 -23 -49 30 c-55 34 -81 37 -117 14 -19 -13 -38 -15 -85 -10 -33 3 -68 10 -79 16 -33 18 -119 12 -147 -10 -14 -11 -34 -20 -43 -20 -10 0 -34 -7 -53 -15 -20 -8 -63 -15 -95 -15 l-59 0 -22 123 c-40 215 -59 300 -86 372 -15 39 -35 97 -46 131 -10 34 -32 79 -49 102 -34 47 -126 126 -208 179 -31 20 -80 55 -108 79 -28 24 -54 44 -59 44 -4 0 -21 10 -38 23 -26 18 -45 22 -97 21 -57 0 -71 -4 -120 -37 -30 -20 -68 -39 -85 -43 -31 -7 -125 -70 -125 -83 0 -5 -24 -11 -53 -14 -63 -6 -101 -21 -224 -89 -28 -15 -62 -28 -75 -28 -13 0 -34 -7 -47 -16 -13 -9 -37 -20 -55 -25 -17 -4 -58 -15 -91 -23 -33 -8 -79 -15 -102 -16 -24 0 -66 -9 -95 -20 -51 -20 -181 -44 -223 -43 -69 4 -173 24 -211 42 -78 37 -211 94 -249 106 -17 5 -11 15 52 76 40 38 76 69 81 69 4 0 28 21 54 48 46 47 61 80 73 160 6 35 11 43 33 49 45 11 100 43 116 67 11 18 15 55 14 162 0 161 -6 174 -93 213 -27 13 -55 27 -62 33 -17 14 2 48 40 73 24 16 34 33 46 80 15 56 18 59 54 67 43 9 146 63 164 86 7 9 13 27 13 40 0 30 28 81 58 105 38 31 52 71 52 147 0 39 6 86 14 105 13 31 13 51 -1 167 -14 113 -20 138 -42 168 -23 31 -26 46 -29 132 l-4 97 39 24 c21 13 46 34 57 45 l19 21 29 -37 c28 -36 49 -50 75 -51 18 -1 84 59 94 86 16 43 38 22 81 -81 19 -44 33 -61 62 -77 46 -25 68 -19 121 31 22 21 50 43 63 49 21 11 22 10 22 -41 1 -29 5 -73 11 -98 5 -25 13 -72 18 -105 5 -33 12 -68 16 -78 9 -22 75 -57 107 -57 15 0 39 -18 69 -52 l46 -52 34 14 c19 7 50 25 69 39 41 31 66 46 100 62 14 6 32 15 40 20 8 5 26 14 40 20 14 6 48 21 75 34 28 12 74 33 103 46 l52 22 23 -21 c20 -19 35 -22 117 -22 111 0 220 -28 252 -65 30 -34 62 -42 235 -56 172 -14 176 -13 193 53 9 31 24 48 73 85 34 25 76 52 93 59 17 7 34 20 37 29 4 8 11 15 17 15 19 0 101 85 173 180 39 52 72 96 72 97 1 1 19 -7 41 -17 53 -26 160 -46 177 -32 6 5 26 13 44 17 39 8 143 63 143 76 0 5 17 9 38 9 31 0 43 -7 71 -40z m6418 -616 c21 -6 21 -8 8 -28 -12 -17 -14 -39 -9 -109 6 -78 5 -90 -13 -110 -10 -12 -31 -40 -46 -62 -14 -22 -51 -63 -80 -92 -41 -39 -66 -77 -109 -165 -53 -109 -58 -115 -132 -172 -42 -32 -76 -62 -76 -67 0 -5 -5 -9 -11 -9 -10 0 -64 -46 -117 -100 -55 -57 -114 -143 -169 -249 -55 -107 -61 -114 -113 -142 -54 -29 -170 -142 -170 -165 0 -7 -24 -48 -54 -92 -66 -99 -84 -134 -91 -181 -16 -100 -30 -159 -47 -189 -27 -48 -24 -83 32 -455 11 -72 42 -138 94 -199 17 -20 40 -49 51 -64 11 -14 27 -34 36 -44 10 -11 18 -42 21 -80 5 -70 6 -71 159 -195 87 -71 102 -79 189 -96 88 -17 137 -15 161 7 12 11 41 19 77 22 48 3 60 1 76 -17 16 -17 31 -21 89 -21 51 0 76 -5 95 -18 15 -10 35 -22 45 -25 9 -4 17 -13 17 -21 0 -8 9 -30 19 -48 11 -18 22 -58 26 -88 4 -30 16 -73 26 -94 11 -22 19 -44 19 -49 0 -5 15 -26 33 -47 57 -66 127 -159 127 -169 0 -9 141 -142 229 -217 19 -16 57 -52 85 -80 28 -28 71 -64 96 -80 25 -16 50 -34 55 -40 6 -6 27 -14 48 -17 21 -3 52 -13 69 -21 17 -9 37 -16 44 -16 27 0 82 -30 178 -97 26 -18 51 -33 57 -33 5 0 9 -4 9 -8 0 -12 128 -93 165 -105 17 -5 47 -18 68 -28 27 -13 61 -19 113 -19 48 0 74 -4 74 -11 0 -6 17 -28 38 -48 45 -45 123 -135 177 -206 22 -29 54 -66 70 -82 36 -36 158 -123 195 -140 74 -33 124 -53 133 -53 16 0 87 -51 87 -63 0 -21 34 -47 62 -47 17 0 28 -5 28 -14 0 -8 10 -34 21 -58 12 -23 27 -54 33 -68 36 -82 200 -290 229 -290 10 0 72 -28 191 -86 49 -24 98 -44 110 -44 12 0 51 -26 88 -60 l66 -60 81 0 c65 0 82 -3 89 -17 10 -17 80 -43 118 -43 39 0 79 -66 107 -180 15 -58 27 -112 27 -121 0 -9 9 -28 20 -42 30 -38 25 -45 -27 -40 -79 8 -130 31 -142 64 -5 16 -15 29 -21 29 -16 0 -88 50 -125 87 -36 36 -60 41 -86 17 -15 -14 -20 -12 -55 21 -91 86 -180 125 -212 93 -9 -9 -22 -3 -55 30 -48 47 -68 51 -97 22 -19 -19 -25 -20 -80 -9 -61 12 -83 24 -165 89 -68 54 -102 69 -177 76 -46 5 -81 16 -128 42 -36 20 -78 43 -95 52 -74 39 -113 72 -119 101 -5 29 -122 159 -143 159 -5 0 -18 9 -28 20 -10 11 -23 20 -28 20 -6 0 -24 11 -41 24 -17 13 -41 26 -53 30 -11 4 -27 13 -33 21 -8 10 -32 15 -72 15 -41 0 -67 6 -86 18 -104 71 -154 102 -166 102 -7 0 -19 7 -26 15 -24 29 -111 47 -238 50 -103 3 -130 0 -164 -15 l-42 -18 -26 41 c-15 23 -40 56 -56 73 -16 18 -33 38 -39 46 -31 45 -109 138 -117 138 -4 0 -8 7 -8 15 0 8 -9 19 -20 25 -11 6 -20 16 -20 23 -1 21 -73 92 -115 114 -81 43 -169 79 -254 105 -41 12 -110 53 -131 78 -30 35 -122 100 -142 100 -11 0 -32 8 -46 18 -51 33 -67 42 -92 53 -26 12 -116 56 -200 99 -27 14 -64 39 -82 56 -43 41 -62 50 -126 59 -35 5 -70 18 -103 41 -27 18 -67 36 -87 40 -20 3 -52 15 -70 25 -18 10 -41 19 -51 19 -10 0 -49 11 -87 25 -38 14 -77 25 -87 25 -10 0 -46 9 -80 20 -34 10 -98 28 -142 40 -44 12 -102 29 -130 38 -42 14 -92 17 -315 17 -263 0 -265 0 -305 24 -64 39 -137 79 -182 100 -24 12 -59 41 -83 73 -23 29 -47 55 -54 58 -9 4 -80 48 -142 88 -10 6 -30 17 -44 23 -64 27 -130 62 -130 69 0 5 -3 15 -6 23 -3 10 4 17 23 22 38 9 51 21 58 55 8 35 -28 90 -59 90 -12 0 -32 9 -46 20 -14 11 -29 20 -35 20 -5 0 -28 9 -50 19 -22 11 -60 25 -85 31 -123 33 -235 87 -333 163 -27 20 -55 37 -63 37 -7 0 -28 9 -46 20 -18 11 -48 20 -65 20 -31 0 -33 2 -33 33 0 18 4 37 8 43 20 23 36 106 37 194 l0 94 63 50 c53 43 62 55 62 82 0 25 -8 39 -37 63 -21 17 -48 31 -60 31 -46 0 -39 40 29 167 68 128 80 166 71 231 -5 38 -17 54 -110 146 -89 89 -103 107 -94 123 18 31 38 53 48 53 5 0 25 12 44 26 30 22 40 24 89 19 47 -5 60 -3 82 14 14 12 29 21 32 21 3 0 22 12 43 26 34 23 45 25 102 21 89 -7 128 12 198 96 13 15 29 27 36 27 7 0 26 14 42 30 25 26 29 38 28 83 -1 45 10 117 36 232 11 49 57 58 226 45 77 -5 161 -13 186 -16 39 -5 53 -2 87 20 22 14 44 36 47 48 27 87 58 122 153 168 58 29 62 33 62 65 0 31 3 34 48 49 26 8 67 18 91 21 29 5 56 18 81 41 l38 35 76 -31 c69 -27 87 -30 188 -30 121 0 148 10 148 56 0 35 10 54 30 54 9 0 33 16 53 35 32 31 36 42 39 92 l3 57 52 22 52 23 20 -34 20 -35 107 0 c115 0 219 -25 256 -62 24 -24 70 -23 136 2 41 16 76 20 166 20 l114 0 58 45 c55 43 60 45 126 45 69 0 108 11 108 31 0 13 30 59 39 59 3 0 16 -3 28 -6z m-5795 -2283 c13 -5 40 -25 60 -45 20 -20 42 -36 48 -36 5 0 10 -5 10 -11 0 -19 68 -39 133 -39 52 0 67 4 83 21 46 51 90 64 229 65 72 0 254 2 405 3 151 2 282 0 290 -3 13 -6 65 -74 97 -129 15 -26 194 -197 206 -197 5 0 22 -9 37 -20 26 -19 36 -20 125 -11 78 7 103 6 126 -6 37 -18 65 -10 110 34 l36 34 34 -19 c19 -11 49 -23 67 -27 26 -5 32 -11 32 -33 1 -45 30 -70 120 -101 47 -17 107 -46 133 -65 26 -20 52 -36 56 -36 5 0 14 -7 21 -15 12 -14 62 -40 171 -88 21 -9 54 -19 75 -23 36 -7 69 -19 169 -64 22 -10 49 -21 60 -26 19 -7 19 -8 -2 -11 -24 -5 -63 -51 -63 -75 0 -11 -18 -14 -82 -14 -46 1 -112 -3 -148 -7 l-65 -9 -38 37 c-45 43 -66 51 -172 71 -44 9 -100 19 -125 24 -25 5 -80 9 -123 9 -46 1 -89 7 -105 15 -43 22 -199 57 -283 63 -54 4 -95 1 -144 -12 -64 -16 -70 -16 -114 1 -71 27 -236 26 -323 -4 -60 -20 -87 -22 -249 -22 -169 0 -183 -1 -211 -22 -25 -18 -51 -22 -148 -28 -64 -4 -122 -10 -128 -14 -7 -4 -116 -9 -242 -11 -212 -3 -233 -5 -264 -24 -18 -12 -40 -21 -48 -21 -9 0 -21 -6 -27 -14 -6 -7 -34 -16 -62 -20 -42 -6 -55 -3 -82 16 -29 21 -42 23 -140 22 -80 -1 -113 -6 -132 -18 -30 -20 -91 -40 -173 -56 -53 -11 -65 -11 -80 2 -9 8 -42 27 -72 43 -53 27 -57 27 -185 23 -95 -4 -141 -10 -170 -23 -22 -10 -51 -23 -65 -29 -14 -6 -39 -21 -57 -34 -26 -19 -51 -24 -147 -32 -82 -7 -128 -16 -156 -30 -21 -11 -46 -20 -54 -20 -8 0 -37 -18 -65 -40 -70 -55 -112 -80 -138 -80 -20 0 -72 -20 -144 -55 l-26 -13 -7 52 c-3 28 -6 99 -6 158 0 96 2 108 19 118 11 5 28 10 37 10 10 0 26 7 36 17 17 15 18 39 18 330 l0 313 72 0 c53 0 88 7 137 26 36 14 70 30 75 35 14 13 70 11 84 -3 17 -17 178 -24 207 -8 28 15 72 1 101 -31 9 -10 27 -19 39 -19 27 0 75 49 75 76 0 16 15 27 61 47 54 23 64 25 88 13 19 -10 70 -12 194 -11 146 2 170 5 188 21 17 15 24 16 53 6 18 -7 39 -12 48 -12 9 0 18 -6 21 -14 3 -8 18 -22 32 -32 21 -14 31 -15 51 -5 20 9 30 8 47 -4 31 -22 55 -19 81 10 15 16 41 28 73 34 94 18 212 79 226 116 7 17 34 19 69 6z"/>
 </g>

</svg>